<mxfile host="Electron" modified="2023-09-15T09:18:42.691Z" agent="Mozilla/5.0 (Windows NT 10.0; Win64; x64) AppleWebKit/537.36 (KHTML, like Gecko) draw.io/21.6.8 Chrome/114.0.5735.289 Electron/25.5.0 Safari/537.36" etag="OFu4kE5z57-YspRdsTkv" version="21.6.8" type="device">
  <diagram name="Pagina-1" id="YPlRpO-ADFL2MHu-0xMb">
    <mxGraphModel dx="987" dy="1754" grid="0" gridSize="10" guides="1" tooltips="1" connect="1" arrows="1" fold="1" page="1" pageScale="1" pageWidth="827" pageHeight="1169" math="0" shadow="0">
      <root>
        <mxCell id="0" />
        <mxCell id="1" parent="0" />
        <mxCell id="kiA0nylPtUoKf5AfdMPU-101" value="" style="rounded=0;whiteSpace=wrap;html=1;fillColor=#f8cecc;strokeColor=#b85450;" vertex="1" parent="1">
          <mxGeometry x="522" y="-330" width="829" height="1278" as="geometry" />
        </mxCell>
        <mxCell id="kiA0nylPtUoKf5AfdMPU-36" value="" style="rounded=0;whiteSpace=wrap;html=1;fillColor=#fff2cc;strokeColor=#d6b656;" vertex="1" parent="1">
          <mxGeometry x="10" y="15" width="481" height="942" as="geometry" />
        </mxCell>
        <mxCell id="kiA0nylPtUoKf5AfdMPU-3" value="" style="edgeStyle=orthogonalEdgeStyle;rounded=0;orthogonalLoop=1;jettySize=auto;html=1;" edge="1" parent="1" source="kiA0nylPtUoKf5AfdMPU-1" target="kiA0nylPtUoKf5AfdMPU-2">
          <mxGeometry relative="1" as="geometry" />
        </mxCell>
        <mxCell id="kiA0nylPtUoKf5AfdMPU-1" value="Start" style="ellipse;whiteSpace=wrap;html=1;aspect=fixed;" vertex="1" parent="1">
          <mxGeometry x="68" y="27" width="80" height="80" as="geometry" />
        </mxCell>
        <mxCell id="kiA0nylPtUoKf5AfdMPU-8" value="" style="edgeStyle=orthogonalEdgeStyle;rounded=0;orthogonalLoop=1;jettySize=auto;html=1;" edge="1" parent="1" source="kiA0nylPtUoKf5AfdMPU-2" target="kiA0nylPtUoKf5AfdMPU-4">
          <mxGeometry relative="1" as="geometry" />
        </mxCell>
        <mxCell id="kiA0nylPtUoKf5AfdMPU-2" value="Bekijk is winnende zet" style="whiteSpace=wrap;html=1;" vertex="1" parent="1">
          <mxGeometry x="48" y="152" width="120" height="60" as="geometry" />
        </mxCell>
        <mxCell id="kiA0nylPtUoKf5AfdMPU-9" value="" style="edgeStyle=orthogonalEdgeStyle;rounded=0;orthogonalLoop=1;jettySize=auto;html=1;" edge="1" parent="1" source="kiA0nylPtUoKf5AfdMPU-4" target="kiA0nylPtUoKf5AfdMPU-7">
          <mxGeometry relative="1" as="geometry" />
        </mxCell>
        <mxCell id="kiA0nylPtUoKf5AfdMPU-30" value="" style="edgeStyle=orthogonalEdgeStyle;rounded=0;orthogonalLoop=1;jettySize=auto;html=1;" edge="1" parent="1" source="kiA0nylPtUoKf5AfdMPU-4" target="kiA0nylPtUoKf5AfdMPU-11">
          <mxGeometry relative="1" as="geometry" />
        </mxCell>
        <mxCell id="kiA0nylPtUoKf5AfdMPU-38" value="ja" style="edgeLabel;html=1;align=center;verticalAlign=middle;resizable=0;points=[];" vertex="1" connectable="0" parent="kiA0nylPtUoKf5AfdMPU-30">
          <mxGeometry x="0.1661" y="1" relative="1" as="geometry">
            <mxPoint as="offset" />
          </mxGeometry>
        </mxCell>
        <mxCell id="kiA0nylPtUoKf5AfdMPU-4" value="is winnend?" style="rhombus;whiteSpace=wrap;html=1;" vertex="1" parent="1">
          <mxGeometry x="68" y="242" width="80" height="80" as="geometry" />
        </mxCell>
        <mxCell id="kiA0nylPtUoKf5AfdMPU-18" value="" style="edgeStyle=orthogonalEdgeStyle;rounded=0;orthogonalLoop=1;jettySize=auto;html=1;" edge="1" parent="1" source="kiA0nylPtUoKf5AfdMPU-6">
          <mxGeometry relative="1" as="geometry">
            <mxPoint x="108" y="545" as="targetPoint" />
          </mxGeometry>
        </mxCell>
        <mxCell id="kiA0nylPtUoKf5AfdMPU-29" value="" style="edgeStyle=orthogonalEdgeStyle;rounded=0;orthogonalLoop=1;jettySize=auto;html=1;" edge="1" parent="1" source="kiA0nylPtUoKf5AfdMPU-6" target="kiA0nylPtUoKf5AfdMPU-12">
          <mxGeometry relative="1" as="geometry" />
        </mxCell>
        <mxCell id="kiA0nylPtUoKf5AfdMPU-6" value="is winnende zet?" style="rhombus;whiteSpace=wrap;html=1;" vertex="1" parent="1">
          <mxGeometry x="68" y="431" width="80" height="80" as="geometry" />
        </mxCell>
        <mxCell id="kiA0nylPtUoKf5AfdMPU-10" value="" style="edgeStyle=orthogonalEdgeStyle;rounded=0;orthogonalLoop=1;jettySize=auto;html=1;" edge="1" parent="1" source="kiA0nylPtUoKf5AfdMPU-7" target="kiA0nylPtUoKf5AfdMPU-6">
          <mxGeometry relative="1" as="geometry" />
        </mxCell>
        <mxCell id="kiA0nylPtUoKf5AfdMPU-7" value="kan tegenstander winnen" style="rounded=0;whiteSpace=wrap;html=1;" vertex="1" parent="1">
          <mxGeometry x="48" y="347" width="120" height="60" as="geometry" />
        </mxCell>
        <mxCell id="kiA0nylPtUoKf5AfdMPU-31" value="" style="edgeStyle=orthogonalEdgeStyle;rounded=0;orthogonalLoop=1;jettySize=auto;html=1;" edge="1" parent="1" source="kiA0nylPtUoKf5AfdMPU-11" target="kiA0nylPtUoKf5AfdMPU-23">
          <mxGeometry relative="1" as="geometry" />
        </mxCell>
        <mxCell id="kiA0nylPtUoKf5AfdMPU-11" value="Zet winnende zet" style="rounded=0;whiteSpace=wrap;html=1;" vertex="1" parent="1">
          <mxGeometry x="207" y="252" width="120" height="60" as="geometry" />
        </mxCell>
        <mxCell id="kiA0nylPtUoKf5AfdMPU-32" value="" style="edgeStyle=orthogonalEdgeStyle;rounded=0;orthogonalLoop=1;jettySize=auto;html=1;" edge="1" parent="1" source="kiA0nylPtUoKf5AfdMPU-12" target="kiA0nylPtUoKf5AfdMPU-24">
          <mxGeometry relative="1" as="geometry" />
        </mxCell>
        <mxCell id="kiA0nylPtUoKf5AfdMPU-12" value="Zet blokkerde zet" style="rounded=0;whiteSpace=wrap;html=1;" vertex="1" parent="1">
          <mxGeometry x="207" y="441" width="120" height="60" as="geometry" />
        </mxCell>
        <mxCell id="kiA0nylPtUoKf5AfdMPU-23" value="Einde" style="ellipse;whiteSpace=wrap;html=1;aspect=fixed;" vertex="1" parent="1">
          <mxGeometry x="380" y="242" width="80" height="80" as="geometry" />
        </mxCell>
        <mxCell id="kiA0nylPtUoKf5AfdMPU-24" value="Einde" style="ellipse;whiteSpace=wrap;html=1;aspect=fixed;" vertex="1" parent="1">
          <mxGeometry x="380" y="431" width="80" height="80" as="geometry" />
        </mxCell>
        <mxCell id="kiA0nylPtUoKf5AfdMPU-25" value="Einde" style="ellipse;whiteSpace=wrap;html=1;aspect=fixed;" vertex="1" parent="1">
          <mxGeometry x="65" y="642" width="80" height="80" as="geometry" />
        </mxCell>
        <mxCell id="kiA0nylPtUoKf5AfdMPU-37" value="Zet Computer" style="text;strokeColor=none;fillColor=none;align=left;verticalAlign=middle;spacingLeft=4;spacingRight=4;overflow=hidden;points=[[0,0.5],[1,0.5]];portConstraint=eastwest;rotatable=0;whiteSpace=wrap;html=1;" vertex="1" parent="1">
          <mxGeometry x="269" y="59" width="110" height="30" as="geometry" />
        </mxCell>
        <mxCell id="kiA0nylPtUoKf5AfdMPU-40" value="" style="edgeStyle=orthogonalEdgeStyle;rounded=0;orthogonalLoop=1;jettySize=auto;html=1;" edge="1" parent="1" source="kiA0nylPtUoKf5AfdMPU-39" target="kiA0nylPtUoKf5AfdMPU-25">
          <mxGeometry relative="1" as="geometry" />
        </mxCell>
        <mxCell id="kiA0nylPtUoKf5AfdMPU-39" value="Zet willekeurige zet" style="rounded=0;whiteSpace=wrap;html=1;" vertex="1" parent="1">
          <mxGeometry x="48" y="544" width="120" height="60" as="geometry" />
        </mxCell>
        <mxCell id="kiA0nylPtUoKf5AfdMPU-86" style="edgeStyle=orthogonalEdgeStyle;rounded=0;orthogonalLoop=1;jettySize=auto;html=1;entryX=0;entryY=0.5;entryDx=0;entryDy=0;" edge="1" parent="1" source="kiA0nylPtUoKf5AfdMPU-41" target="kiA0nylPtUoKf5AfdMPU-85">
          <mxGeometry relative="1" as="geometry" />
        </mxCell>
        <mxCell id="kiA0nylPtUoKf5AfdMPU-41" value="Speler doet zet" style="shape=parallelogram;perimeter=parallelogramPerimeter;whiteSpace=wrap;html=1;fixedSize=1;" vertex="1" parent="1">
          <mxGeometry x="628" y="256" width="120" height="60" as="geometry" />
        </mxCell>
        <mxCell id="kiA0nylPtUoKf5AfdMPU-87" style="edgeStyle=orthogonalEdgeStyle;rounded=0;orthogonalLoop=1;jettySize=auto;html=1;entryX=1;entryY=0.5;entryDx=0;entryDy=0;" edge="1" parent="1" target="kiA0nylPtUoKf5AfdMPU-85">
          <mxGeometry relative="1" as="geometry">
            <mxPoint x="899" y="316" as="sourcePoint" />
          </mxGeometry>
        </mxCell>
        <mxCell id="kiA0nylPtUoKf5AfdMPU-44" style="edgeStyle=orthogonalEdgeStyle;rounded=0;orthogonalLoop=1;jettySize=auto;html=1;" edge="1" parent="1" source="kiA0nylPtUoKf5AfdMPU-43">
          <mxGeometry relative="1" as="geometry">
            <mxPoint x="899" y="256" as="targetPoint" />
            <Array as="points">
              <mxPoint x="899" y="182" />
              <mxPoint x="899" y="242" />
              <mxPoint x="867" y="242" />
              <mxPoint x="867" y="236" />
              <mxPoint x="899" y="236" />
            </Array>
          </mxGeometry>
        </mxCell>
        <mxCell id="kiA0nylPtUoKf5AfdMPU-47" value="ja" style="edgeLabel;html=1;align=center;verticalAlign=middle;resizable=0;points=[];" vertex="1" connectable="0" parent="kiA0nylPtUoKf5AfdMPU-44">
          <mxGeometry x="-0.5672" y="-2" relative="1" as="geometry">
            <mxPoint as="offset" />
          </mxGeometry>
        </mxCell>
        <mxCell id="kiA0nylPtUoKf5AfdMPU-45" style="edgeStyle=orthogonalEdgeStyle;rounded=0;orthogonalLoop=1;jettySize=auto;html=1;" edge="1" parent="1" source="kiA0nylPtUoKf5AfdMPU-43" target="kiA0nylPtUoKf5AfdMPU-41">
          <mxGeometry relative="1" as="geometry" />
        </mxCell>
        <mxCell id="kiA0nylPtUoKf5AfdMPU-46" value="nee" style="edgeLabel;html=1;align=center;verticalAlign=middle;resizable=0;points=[];" vertex="1" connectable="0" parent="kiA0nylPtUoKf5AfdMPU-45">
          <mxGeometry x="-0.3098" y="-3" relative="1" as="geometry">
            <mxPoint as="offset" />
          </mxGeometry>
        </mxCell>
        <mxCell id="kiA0nylPtUoKf5AfdMPU-43" value="Beurt computer?" style="rhombus;whiteSpace=wrap;html=1;" vertex="1" parent="1">
          <mxGeometry x="767" y="142" width="80" height="80" as="geometry" />
        </mxCell>
        <mxCell id="kiA0nylPtUoKf5AfdMPU-52" value="" style="edgeStyle=orthogonalEdgeStyle;rounded=0;orthogonalLoop=1;jettySize=auto;html=1;" edge="1" parent="1" source="kiA0nylPtUoKf5AfdMPU-48" target="kiA0nylPtUoKf5AfdMPU-51">
          <mxGeometry relative="1" as="geometry" />
        </mxCell>
        <mxCell id="kiA0nylPtUoKf5AfdMPU-48" value="Bereken is er een winnaar" style="whiteSpace=wrap;html=1;" vertex="1" parent="1">
          <mxGeometry x="735" y="441" width="120" height="60" as="geometry" />
        </mxCell>
        <mxCell id="kiA0nylPtUoKf5AfdMPU-55" value="" style="edgeStyle=orthogonalEdgeStyle;rounded=0;orthogonalLoop=1;jettySize=auto;html=1;" edge="1" parent="1" source="kiA0nylPtUoKf5AfdMPU-51" target="kiA0nylPtUoKf5AfdMPU-53">
          <mxGeometry relative="1" as="geometry" />
        </mxCell>
        <mxCell id="kiA0nylPtUoKf5AfdMPU-57" value="Ja" style="edgeLabel;html=1;align=center;verticalAlign=middle;resizable=0;points=[];" vertex="1" connectable="0" parent="kiA0nylPtUoKf5AfdMPU-55">
          <mxGeometry x="0.0387" y="1" relative="1" as="geometry">
            <mxPoint as="offset" />
          </mxGeometry>
        </mxCell>
        <mxCell id="kiA0nylPtUoKf5AfdMPU-59" value="" style="edgeStyle=orthogonalEdgeStyle;rounded=0;orthogonalLoop=1;jettySize=auto;html=1;" edge="1" parent="1" source="kiA0nylPtUoKf5AfdMPU-51" target="kiA0nylPtUoKf5AfdMPU-58">
          <mxGeometry relative="1" as="geometry" />
        </mxCell>
        <mxCell id="kiA0nylPtUoKf5AfdMPU-81" value="nee" style="edgeLabel;html=1;align=center;verticalAlign=middle;resizable=0;points=[];" vertex="1" connectable="0" parent="kiA0nylPtUoKf5AfdMPU-59">
          <mxGeometry x="0.2971" relative="1" as="geometry">
            <mxPoint as="offset" />
          </mxGeometry>
        </mxCell>
        <mxCell id="kiA0nylPtUoKf5AfdMPU-51" value="is winnaar" style="rhombus;whiteSpace=wrap;html=1;" vertex="1" parent="1">
          <mxGeometry x="759" y="514" width="80" height="80" as="geometry" />
        </mxCell>
        <mxCell id="kiA0nylPtUoKf5AfdMPU-56" value="" style="edgeStyle=orthogonalEdgeStyle;rounded=0;orthogonalLoop=1;jettySize=auto;html=1;" edge="1" parent="1" source="kiA0nylPtUoKf5AfdMPU-53" target="kiA0nylPtUoKf5AfdMPU-54">
          <mxGeometry relative="1" as="geometry" />
        </mxCell>
        <mxCell id="kiA0nylPtUoKf5AfdMPU-53" value="Feliciteer winnaar" style="shape=parallelogram;perimeter=parallelogramPerimeter;whiteSpace=wrap;html=1;fixedSize=1;" vertex="1" parent="1">
          <mxGeometry x="891" y="524" width="120" height="60" as="geometry" />
        </mxCell>
        <mxCell id="kiA0nylPtUoKf5AfdMPU-54" value="Einde" style="ellipse;whiteSpace=wrap;html=1;aspect=fixed;" vertex="1" parent="1">
          <mxGeometry x="1067" y="514" width="80" height="80" as="geometry" />
        </mxCell>
        <mxCell id="kiA0nylPtUoKf5AfdMPU-63" value="" style="edgeStyle=orthogonalEdgeStyle;rounded=0;orthogonalLoop=1;jettySize=auto;html=1;" edge="1" parent="1" source="kiA0nylPtUoKf5AfdMPU-58" target="kiA0nylPtUoKf5AfdMPU-62">
          <mxGeometry relative="1" as="geometry" />
        </mxCell>
        <mxCell id="kiA0nylPtUoKf5AfdMPU-80" value="ja" style="edgeLabel;html=1;align=center;verticalAlign=middle;resizable=0;points=[];" vertex="1" connectable="0" parent="kiA0nylPtUoKf5AfdMPU-63">
          <mxGeometry x="0.0684" y="-5" relative="1" as="geometry">
            <mxPoint as="offset" />
          </mxGeometry>
        </mxCell>
        <mxCell id="kiA0nylPtUoKf5AfdMPU-83" value="" style="edgeStyle=orthogonalEdgeStyle;rounded=0;orthogonalLoop=1;jettySize=auto;html=1;" edge="1" parent="1" source="kiA0nylPtUoKf5AfdMPU-58" target="kiA0nylPtUoKf5AfdMPU-82">
          <mxGeometry relative="1" as="geometry" />
        </mxCell>
        <mxCell id="kiA0nylPtUoKf5AfdMPU-58" value="Zijn alle velden vol?" style="rhombus;whiteSpace=wrap;html=1;" vertex="1" parent="1">
          <mxGeometry x="759" y="625" width="80" height="80" as="geometry" />
        </mxCell>
        <mxCell id="kiA0nylPtUoKf5AfdMPU-65" value="" style="edgeStyle=orthogonalEdgeStyle;rounded=0;orthogonalLoop=1;jettySize=auto;html=1;" edge="1" parent="1" source="kiA0nylPtUoKf5AfdMPU-62" target="kiA0nylPtUoKf5AfdMPU-64">
          <mxGeometry relative="1" as="geometry" />
        </mxCell>
        <mxCell id="kiA0nylPtUoKf5AfdMPU-62" value="Gelijk spel... &lt;br&gt;jammer" style="shape=parallelogram;perimeter=parallelogramPerimeter;whiteSpace=wrap;html=1;fixedSize=1;" vertex="1" parent="1">
          <mxGeometry x="881" y="635" width="120" height="60" as="geometry" />
        </mxCell>
        <mxCell id="kiA0nylPtUoKf5AfdMPU-64" value="Einde" style="ellipse;whiteSpace=wrap;html=1;" vertex="1" parent="1">
          <mxGeometry x="1074" y="625" width="80" height="80" as="geometry" />
        </mxCell>
        <mxCell id="kiA0nylPtUoKf5AfdMPU-69" value="" style="edgeStyle=orthogonalEdgeStyle;rounded=0;orthogonalLoop=1;jettySize=auto;html=1;" edge="1" parent="1" source="kiA0nylPtUoKf5AfdMPU-67" target="kiA0nylPtUoKf5AfdMPU-68">
          <mxGeometry relative="1" as="geometry" />
        </mxCell>
        <mxCell id="kiA0nylPtUoKf5AfdMPU-67" value="Start" style="ellipse;whiteSpace=wrap;html=1;aspect=fixed;" vertex="1" parent="1">
          <mxGeometry x="1632" y="11" width="80" height="80" as="geometry" />
        </mxCell>
        <mxCell id="kiA0nylPtUoKf5AfdMPU-79" value="" style="edgeStyle=orthogonalEdgeStyle;rounded=0;orthogonalLoop=1;jettySize=auto;html=1;" edge="1" parent="1" source="kiA0nylPtUoKf5AfdMPU-68" target="kiA0nylPtUoKf5AfdMPU-70">
          <mxGeometry relative="1" as="geometry" />
        </mxCell>
        <mxCell id="kiA0nylPtUoKf5AfdMPU-68" value="Speel Tic Tac Toe" style="whiteSpace=wrap;html=1;fillColor=#f8cecc;strokeColor=#b85450;" vertex="1" parent="1">
          <mxGeometry x="1612" y="181" width="120" height="60" as="geometry" />
        </mxCell>
        <mxCell id="kiA0nylPtUoKf5AfdMPU-72" value="" style="edgeStyle=orthogonalEdgeStyle;rounded=0;orthogonalLoop=1;jettySize=auto;html=1;" edge="1" parent="1" source="kiA0nylPtUoKf5AfdMPU-70">
          <mxGeometry relative="1" as="geometry">
            <mxPoint x="1672" y="410.9999999999999" as="targetPoint" />
          </mxGeometry>
        </mxCell>
        <mxCell id="kiA0nylPtUoKf5AfdMPU-70" value="INvoer opnieuw spelen" style="shape=parallelogram;perimeter=parallelogramPerimeter;whiteSpace=wrap;html=1;fixedSize=1;" vertex="1" parent="1">
          <mxGeometry x="1612" y="281" width="120" height="60" as="geometry" />
        </mxCell>
        <mxCell id="kiA0nylPtUoKf5AfdMPU-75" value="" style="edgeStyle=orthogonalEdgeStyle;rounded=0;orthogonalLoop=1;jettySize=auto;html=1;" edge="1" parent="1" source="kiA0nylPtUoKf5AfdMPU-73" target="kiA0nylPtUoKf5AfdMPU-74">
          <mxGeometry relative="1" as="geometry" />
        </mxCell>
        <mxCell id="kiA0nylPtUoKf5AfdMPU-76" value="Nee" style="edgeLabel;html=1;align=center;verticalAlign=middle;resizable=0;points=[];" vertex="1" connectable="0" parent="kiA0nylPtUoKf5AfdMPU-75">
          <mxGeometry x="-0.1667" y="2" relative="1" as="geometry">
            <mxPoint as="offset" />
          </mxGeometry>
        </mxCell>
        <mxCell id="kiA0nylPtUoKf5AfdMPU-77" style="edgeStyle=orthogonalEdgeStyle;rounded=0;orthogonalLoop=1;jettySize=auto;html=1;" edge="1" parent="1" source="kiA0nylPtUoKf5AfdMPU-73" target="kiA0nylPtUoKf5AfdMPU-68">
          <mxGeometry relative="1" as="geometry">
            <Array as="points">
              <mxPoint x="1866" y="447" />
              <mxPoint x="1866" y="211" />
            </Array>
          </mxGeometry>
        </mxCell>
        <mxCell id="kiA0nylPtUoKf5AfdMPU-78" value="Ja" style="edgeLabel;html=1;align=center;verticalAlign=middle;resizable=0;points=[];" vertex="1" connectable="0" parent="kiA0nylPtUoKf5AfdMPU-77">
          <mxGeometry x="-0.8748" y="-2" relative="1" as="geometry">
            <mxPoint as="offset" />
          </mxGeometry>
        </mxCell>
        <mxCell id="kiA0nylPtUoKf5AfdMPU-73" value="Opnieuw ?" style="rhombus;whiteSpace=wrap;html=1;" vertex="1" parent="1">
          <mxGeometry x="1632" y="407" width="80" height="80" as="geometry" />
        </mxCell>
        <mxCell id="kiA0nylPtUoKf5AfdMPU-74" value="EInde" style="ellipse;whiteSpace=wrap;html=1;" vertex="1" parent="1">
          <mxGeometry x="1632" y="567" width="80" height="80" as="geometry" />
        </mxCell>
        <mxCell id="kiA0nylPtUoKf5AfdMPU-84" style="edgeStyle=orthogonalEdgeStyle;rounded=0;orthogonalLoop=1;jettySize=auto;html=1;entryX=0.5;entryY=0;entryDx=0;entryDy=0;" edge="1" parent="1" source="kiA0nylPtUoKf5AfdMPU-82" target="kiA0nylPtUoKf5AfdMPU-43">
          <mxGeometry relative="1" as="geometry">
            <mxPoint x="554" y="72" as="targetPoint" />
            <Array as="points">
              <mxPoint x="577" y="775" />
              <mxPoint x="577" y="122" />
              <mxPoint x="807" y="122" />
            </Array>
          </mxGeometry>
        </mxCell>
        <mxCell id="kiA0nylPtUoKf5AfdMPU-82" value="Andere aan zet" style="whiteSpace=wrap;html=1;" vertex="1" parent="1">
          <mxGeometry x="739" y="748" width="120" height="60" as="geometry" />
        </mxCell>
        <mxCell id="kiA0nylPtUoKf5AfdMPU-90" value="" style="edgeStyle=orthogonalEdgeStyle;rounded=0;orthogonalLoop=1;jettySize=auto;html=1;" edge="1" parent="1" source="kiA0nylPtUoKf5AfdMPU-85" target="kiA0nylPtUoKf5AfdMPU-48">
          <mxGeometry relative="1" as="geometry" />
        </mxCell>
        <mxCell id="kiA0nylPtUoKf5AfdMPU-85" value="Toon zet" style="shape=parallelogram;perimeter=parallelogramPerimeter;whiteSpace=wrap;html=1;fixedSize=1;" vertex="1" parent="1">
          <mxGeometry x="735" y="356" width="120" height="60" as="geometry" />
        </mxCell>
        <mxCell id="kiA0nylPtUoKf5AfdMPU-94" value="" style="edgeStyle=orthogonalEdgeStyle;rounded=0;orthogonalLoop=1;jettySize=auto;html=1;" edge="1" parent="1" source="kiA0nylPtUoKf5AfdMPU-91" target="kiA0nylPtUoKf5AfdMPU-43">
          <mxGeometry relative="1" as="geometry" />
        </mxCell>
        <mxCell id="kiA0nylPtUoKf5AfdMPU-91" value="Toon veld" style="shape=parallelogram;perimeter=parallelogramPerimeter;whiteSpace=wrap;html=1;fixedSize=1;" vertex="1" parent="1">
          <mxGeometry x="759" y="23" width="120" height="60" as="geometry" />
        </mxCell>
        <mxCell id="kiA0nylPtUoKf5AfdMPU-96" value="" style="edgeStyle=orthogonalEdgeStyle;rounded=0;orthogonalLoop=1;jettySize=auto;html=1;" edge="1" parent="1" source="kiA0nylPtUoKf5AfdMPU-92" target="kiA0nylPtUoKf5AfdMPU-93">
          <mxGeometry relative="1" as="geometry" />
        </mxCell>
        <mxCell id="kiA0nylPtUoKf5AfdMPU-92" value="random wie begint" style="rounded=0;whiteSpace=wrap;html=1;" vertex="1" parent="1">
          <mxGeometry x="767" y="-152" width="120" height="60" as="geometry" />
        </mxCell>
        <mxCell id="kiA0nylPtUoKf5AfdMPU-95" value="" style="edgeStyle=orthogonalEdgeStyle;rounded=0;orthogonalLoop=1;jettySize=auto;html=1;" edge="1" parent="1" source="kiA0nylPtUoKf5AfdMPU-93" target="kiA0nylPtUoKf5AfdMPU-91">
          <mxGeometry relative="1" as="geometry" />
        </mxCell>
        <mxCell id="kiA0nylPtUoKf5AfdMPU-93" value="Toon wie begint" style="shape=parallelogram;perimeter=parallelogramPerimeter;whiteSpace=wrap;html=1;fixedSize=1;" vertex="1" parent="1">
          <mxGeometry x="767" y="-64" width="120" height="60" as="geometry" />
        </mxCell>
        <mxCell id="kiA0nylPtUoKf5AfdMPU-98" value="" style="edgeStyle=orthogonalEdgeStyle;rounded=0;orthogonalLoop=1;jettySize=auto;html=1;" edge="1" parent="1" source="kiA0nylPtUoKf5AfdMPU-97" target="kiA0nylPtUoKf5AfdMPU-92">
          <mxGeometry relative="1" as="geometry" />
        </mxCell>
        <mxCell id="kiA0nylPtUoKf5AfdMPU-97" value="Start" style="ellipse;whiteSpace=wrap;html=1;aspect=fixed;" vertex="1" parent="1">
          <mxGeometry x="796" y="-296" width="80" height="80" as="geometry" />
        </mxCell>
        <mxCell id="kiA0nylPtUoKf5AfdMPU-102" value="Zet computer" style="rounded=0;whiteSpace=wrap;html=1;fillColor=#fff2cc;strokeColor=#d6b656;" vertex="1" parent="1">
          <mxGeometry x="855" y="252" width="120" height="60" as="geometry" />
        </mxCell>
      </root>
    </mxGraphModel>
  </diagram>
</mxfile>
